<?xml version="1.0" encoding="UTF-8" standalone="no"?>
<!-- Created with Inkscape (http://www.inkscape.org/) -->

<svg
   version="1.1"
   id="svg5671"
   width="128"
   height="128"
   viewBox="0 0 128 128"
   sodipodi:docname="nachotime-icon2.png"
   inkscape:version="1.2.1 (9c6d41e410, 2022-07-14)"
   inkscape:dataloss="true"
   inkscape:export-filename="logo-128.svg"
   inkscape:export-xdpi="96"
   inkscape:export-ydpi="96"
   xmlns:inkscape="http://www.inkscape.org/namespaces/inkscape"
   xmlns:sodipodi="http://sodipodi.sourceforge.net/DTD/sodipodi-0.dtd"
   xmlns="http://www.w3.org/2000/svg"
   xmlns:svg="http://www.w3.org/2000/svg">
  <defs
     id="defs5675" />
  <sodipodi:namedview
     id="namedview5673"
     pagecolor="#ffffff"
     bordercolor="#111111"
     borderopacity="1"
     inkscape:showpageshadow="0"
     inkscape:pageopacity="0"
     inkscape:pagecheckerboard="1"
     inkscape:deskcolor="#d1d1d1"
     showgrid="false"
     inkscape:zoom="3.2777778"
     inkscape:cx="-12.355932"
     inkscape:cy="31.728814"
     inkscape:window-width="1920"
     inkscape:window-height="1020"
     inkscape:window-x="0"
     inkscape:window-y="0"
     inkscape:window-maximized="1"
     inkscape:current-layer="g5677" />
  <g
     inkscape:groupmode="layer"
     inkscape:label="Image"
     id="g5677"
     transform="translate(-0.41251799,-0.33953896)">
    <g
       id="g7005"
       transform="matrix(1.7673935,0,0,1.7534348,0.64531015,0.32909817)">
      <path
         style="fill:#fee19a"
         d="M 24.844183,70.663423 C 10.131071,65.177968 1.1619371,53.733258 0.21115133,39.231417 -0.33748194,30.863399 1.5203966,20.441606 4.0851806,17.5 5.0442699,16.4 7.4342051,13.654596 9.3961478,11.399101 22.481379,-3.6439802 49.518621,-3.6439802 62.603852,11.399101 64.565795,13.654596 66.95573,16.4 67.914819,17.5 c 4.900135,5.62007 5.304597,25.25413 0.70629,34.285904 -8.082547,15.875351 -28.367421,24.62261 -43.776926,18.877519 z"
         id="path7027" />
      <path
         style="fill:#fed36b"
         d="M 26.5,70.657736 C 0.81897739,62.130126 -8.660432,31.513366 8.663027,13.047574 24.919631,-4.281014 46.705778,-4.346455 63.248249,12.883611 86.639127,37.246741 58.606254,81.318901 26.5,70.657736 Z"
         id="path7025" />
      <path
         style="fill:#fdca4c"
         d="M 27.383506,70.588216 C 9.5309041,66.255669 -2.6399588,47.770497 0.86596205,30.313229 1.4896829,27.207493 2,23.645335 2,22.397322 2,19.466405 14.061755,6.946754 19.524597,4.2074454 29.486725,-0.78800204 42.566577,-0.78229489 52.475403,4.2218229 58.188421,7.1069901 70,19.281508 70,22.284905 c 0,1.309843 0.510317,4.922588 1.134038,8.028324 4.909467,24.446042 -18.849915,46.317978 -43.750532,40.274987 z"
         id="path7023" />
      <path
         style="fill:#deb245"
         d="m 27,57.408056 c -4.024095,-1.740319 -10,-7.180915 -10,-9.104223 0,-1.736447 2.060152,-1.650429 4.696428,0.196091 6.977234,4.887044 21.515896,4.867102 29.004754,-0.03979 5.14654,-3.372143 5.87746,-0.380347 1.048818,4.293014 C 45.504314,58.797987 34.848127,60.80217 27,57.408056 Z M 9.5119163,37.013167 C 8.522984,35.920409 7.1042884,32.676385 6.3592594,29.804224 5.6142304,26.932063 4.3286125,24.203777 3.5023306,23.741366 1.1757463,22.439344 1.6561689,19.110942 4.25,18.561459 c 7.794079,-1.651116 65.232159,-0.01152 65.595011,1.872444 0.204858,1.063646 -0.287693,2.416626 -1.09456,3.006621 -0.806866,0.589995 -2.210348,3.629645 -3.118849,6.754777 C 63.292639,38.24105 62.250309,39 53.539355,39 44.576082,39 42.588455,37.668949 40.085196,29.990172 37.59405,22.348552 34.371803,22.145591 32.303136,29.5 29.738656,38.617098 15.277624,43.384203 9.5119163,37.013167 Z"
         id="path7021" />
      <path
         style="fill:#d3a536"
         d="M 27.42228,57.58157 C 23.415781,55.837002 17,50.182769 17,48.396408 c 0,-1.893988 0.466357,-1.804593 6.831281,1.309474 4.320821,2.113981 6.982683,2.705883 12.168719,2.705883 5.186036,0 7.847898,-0.591902 12.168719,-2.705883 8.214988,-4.019219 9.713622,-2.443795 3.154008,3.315622 -6.695592,5.878808 -16.552769,7.7595 -23.900447,4.560066 z M 10.07854,37.25 C 8.8998752,36.2875 7.3038163,33.09225 6.5317429,30.149445 5.7596695,27.20664 4.4241791,24.021206 3.5639865,23.070704 -0.86578312,18.175864 0.09437617,18.04258 37.98627,18.292407 c 34.048576,0.224487 35.274092,0.447231 30.227349,5.493974 -1.050141,1.050141 -2.197303,3.710123 -2.549249,5.911071 C 64.483334,37.083243 61.984781,39 53.538204,39 44.576201,39 42.588375,37.668701 40.085196,29.990172 c -2.548571,-7.817769 -5.621821,-7.817769 -8.170392,0 C 29.041613,38.803718 16.91739,42.834617 10.07854,37.25 Z"
         id="path7019" />
      <path
         style="fill:#b09242"
         d="m 25.980389,56.25 c -9.950197,-5.087731 -12.130291,-11.066683 -2.382665,-6.534508 8.188199,3.807117 16.616353,3.807117 24.804552,0 6.694679,-3.112702 7.828058,-2.873523 4.979682,1.050874 C 47.787631,58.47404 35.240655,60.984956 25.980389,56.25 Z M 10.07854,37.25 C 8.8998752,36.2875 7.3038163,33.09225 6.5317429,30.149445 5.7596695,27.20664 4.4241791,24.021206 3.5639865,23.070704 -0.85641212,18.186219 0.03043859,18.063359 37.986246,18.302019 c 33.223247,0.208903 36.443289,0.738541 30.57557,5.029121 -0.887653,0.649068 -2.248399,3.585339 -3.023879,6.525047 C 63.398513,37.966364 62.032722,39 53.455796,39 c -8.871126,0 -10.873234,-1.349127 -13.3706,-9.009828 -2.548571,-7.817769 -5.621821,-7.817769 -8.170392,0 C 29.041613,38.803718 16.91739,42.834617 10.07854,37.25 Z"
         id="path7017" />
      <path
         style="fill:#b88d28"
         d="m 25.980389,56.25 c -9.950197,-5.087731 -12.130291,-11.066683 -2.382665,-6.534508 8.188199,3.807117 16.616353,3.807117 24.804552,0 6.694679,-3.112702 7.828058,-2.873523 4.979682,1.050874 C 47.787631,58.47404 35.240655,60.984956 25.980389,56.25 Z M 10.292505,37.492325 C 8.9181994,36.529724 7.6967407,34.003971 6.9139493,30.50609 6.2396228,27.492882 4.8581234,24.276591 3.8439506,23.358777 -1.5235087,18.501293 0.69781273,18.140841 36,18.140841 c 35.694185,0 36.679959,0.162109 32.196747,5.294708 C 67.204958,24.570997 65.8418,27.75 65.167506,30.5 61.890385,43.86522 43.322073,42.576307 39.956689,28.75 38.23691,21.684475 33.76309,21.684475 32.043311,28.75 29.74599,38.188288 18.016783,42.90262 10.292505,37.492325 Z"
         id="path7015" />
      <path
         style="fill:#92752b"
         d="m 28.852205,57.609082 c -4.084654,-1.459196 -8.498452,-4.659016 -10.635808,-7.71052 -2.203424,-3.145827 -0.957076,-3.193375 4.89519,-0.18675 7.705774,3.958872 18.071052,3.958872 25.776826,0 5.899583,-3.030935 7.099811,-2.960787 4.82834,0.282193 -5.184384,7.401744 -16.101995,10.745398 -24.864548,7.615077 z M 10.292505,37.492325 C 8.9181994,36.529724 7.6967407,34.003971 6.9139493,30.50609 6.2396228,27.492882 4.8581234,24.276591 3.8439506,23.358777 -1.5235087,18.501293 0.69781273,18.140841 36,18.140841 c 35.694185,0 36.679959,0.162109 32.196747,5.294708 C 67.204958,24.570997 65.8418,27.75 65.167506,30.5 61.890385,43.86522 43.322073,42.576307 39.956689,28.75 38.23691,21.684475 33.76309,21.684475 32.043311,28.75 29.74599,38.188288 18.016783,42.90262 10.292505,37.492325 Z"
         id="path7013" />
      <path
         style="fill:#544e37"
         d="m 29.732435,57.793154 c -3.668227,-0.97377 -13.767862,-9.046121 -12.696214,-10.147721 0.294922,-0.303165 2.993916,0.665091 5.997765,2.151679 7.774186,3.847402 18.157842,3.847402 25.932028,0 7.085776,-3.506711 7.679569,-2.640956 1.831609,2.670502 -6.472751,5.87893 -12.879278,7.498579 -21.065188,5.32554 z M 11.291798,37.9843 C 9.7181507,37.350817 8.6079914,35.429333 7.4285316,31.297686 6.5182465,28.108959 4.9244376,24.570997 3.8867339,23.435549 c -4.40281854,-4.817534 -0.075704,-6.10903 16.5235311,-4.931711 13.824928,0.980548 17.354542,0.980548 31.17947,0 16.387827,-1.162325 21.527456,0.365167 16.509293,4.906543 -1.045535,0.946196 -2.209114,3.362891 -2.585731,5.370433 C 62.822979,43.12144 44.531872,43.517147 40.405808,29.323986 38.541971,22.912613 33.584259,21.302267 32.481368,26.75 30.38043,37.127591 21.223544,41.982395 11.291798,37.9843 Z"
         id="path7011" />
      <path
         style="fill:#664500"
         d="m 29.732435,57.793154 c -3.668227,-0.97377 -13.767862,-9.046121 -12.696214,-10.147721 0.294922,-0.303165 2.993916,0.665091 5.997765,2.151679 7.774186,3.847402 18.157842,3.847402 25.932028,0 7.085776,-3.506711 7.679569,-2.640956 1.831609,2.670502 -6.472751,5.87893 -12.879278,7.498579 -21.065188,5.32554 z M 13.225366,38.344336 C 10.367185,37.728762 8.0700832,34.277854 6.8523525,28.770236 6.327983,26.39859 4.9282397,23.745938 3.704103,22.803992 c -5.1398655,-3.955012 5.7616435,-5.873409 21.86092,-3.846983 7.681733,0.966904 12.130872,0.96264 21.321187,-0.02043 17.187088,-1.838474 28.275773,0.230446 21.285627,3.971459 -1.120214,0.59952 -2.299935,3.0865 -3.046436,6.42222 -2.981024,13.320618 -21.095613,13.438806 -24.483134,0.15974 -2.2121,-8.671425 -6.972644,-8.724783 -9.16188,-0.10269 -1.956605,7.705895 -8.700428,11.014827 -18.255021,8.95703 z"
         id="path7009" />
      <path
         style="fill:#282e32"
         d="M 13.225366,38.344336 C 10.367185,37.728762 8.0700832,34.277854 6.8523525,28.770236 6.327983,26.39859 4.9282397,23.745938 3.704103,22.803992 c -5.1398655,-3.955012 5.7616435,-5.873409 21.86092,-3.846983 7.681733,0.966904 12.130872,0.96264 21.321187,-0.02043 17.187088,-1.838474 28.275773,0.230446 21.285627,3.971459 -1.120214,0.59952 -2.299935,3.0865 -3.046436,6.42222 -2.981024,13.320618 -21.095613,13.438806 -24.483134,0.15974 -2.2121,-8.671425 -6.972644,-8.724783 -9.16188,-0.10269 -1.956605,7.705895 -8.700428,11.014827 -18.255021,8.95703 z"
         id="path7007" />
    </g>
  </g>
</svg>
